<svg xmlns="http://www.w3.org/2000/svg" xmlns:xlink="http://www.w3.org/1999/xlink" width="500" zoomAndPan="magnify" viewBox="0 0 375 374.999991" height="500" preserveAspectRatio="xMidYMid meet" version="1.0"><defs><g/><clipPath id="7648b8c44b"><path d="M 13 104 L 128 104 L 128 283 L 13 283 Z M 13 104 " clip-rule="nonzero"/></clipPath><clipPath id="b85869373d"><path d="M -50.910156 168.664062 L 98.503906 64.304688 L 179.242188 179.898438 L 29.828125 284.257812 Z M -50.910156 168.664062 " clip-rule="nonzero"/></clipPath><clipPath id="c7b5b54cd9"><path d="M -50.910156 168.664062 L 98.503906 64.304688 L 179.242188 179.898438 L 29.828125 284.257812 Z M -50.910156 168.664062 " clip-rule="nonzero"/></clipPath><clipPath id="2ba72ee0f6"><path d="M -50.882812 168.707031 L 98.738281 64.203125 L 179.425781 179.726562 L 29.808594 284.230469 Z M -50.882812 168.707031 " clip-rule="nonzero"/></clipPath><clipPath id="dd529e66eb"><path d="M -50.882812 168.707031 L 98.710938 64.21875 L 179.371094 179.703125 L 29.78125 284.1875 Z M -50.882812 168.707031 " clip-rule="nonzero"/></clipPath></defs><rect x="-37.5" width="450" fill="#ffffff" y="-37.499999" height="449.999989" fill-opacity="1"/><rect x="-37.5" width="450" fill="#d2c4ff" y="-37.499999" height="449.999989" fill-opacity="1"/><g clip-path="url(#7648b8c44b)"><g clip-path="url(#b85869373d)"><g clip-path="url(#c7b5b54cd9)"><g clip-path="url(#2ba72ee0f6)"><g clip-path="url(#dd529e66eb)"><path fill="#ffffff" d="M 105.738281 130.761719 C 105.613281 130.78125 105.472656 130.679688 105.335938 130.511719 L 106.292969 129.410156 C 106.289062 129.773438 106.277344 130.675781 105.738281 130.761719 Z M 104.605469 128.519531 C 104.648438 128.5 104.703125 128.46875 104.761719 128.441406 L 105.097656 128.359375 L 104.589844 128.929688 C 104.539062 128.710938 104.539062 128.550781 104.605469 128.519531 Z M 82.425781 190.257812 C 82.125 193.003906 80.9375 195.125 78.335938 196.304688 C 77.792969 196.550781 77.269531 196.835938 76.730469 197.085938 C 74.703125 198.027344 72.632812 198.894531 70.625 199.878906 C 77.304688 192.902344 80.65625 184.320312 82.097656 179.625 C 82.113281 180.433594 82.148438 181.242188 82.207031 182.054688 C 82.394531 184.785156 82.722656 187.511719 82.425781 190.257812 Z M 72.210938 234.292969 C 69.941406 232.582031 67.417969 231.632812 64.859375 230.78125 C 64.550781 230.679688 64.238281 230.578125 63.929688 230.476562 L 69.238281 224.371094 C 70.175781 227.679688 71.222656 230.957031 72.210938 234.292969 Z M 60.277344 206.761719 C 59.769531 204.285156 60.230469 201.679688 61.292969 199.101562 C 61.464844 199.011719 61.632812 198.921875 61.804688 198.832031 C 64.148438 197.574219 66.980469 195.773438 70.015625 193.25 C 67.390625 197.863281 67.296875 199.851562 67.710938 200.707031 C 67.832031 200.960938 67.996094 201.121094 68.15625 201.222656 C 67.261719 201.804688 66.480469 202.472656 65.816406 203.226562 C 63.878906 204.699219 62.027344 205.855469 60.277344 206.761719 Z M 45.933594 209.445312 C 45.847656 209.429688 45.765625 209.410156 45.6875 209.386719 C 45.917969 208.554688 46.816406 206.113281 50.0625 202.152344 C 51.316406 202.703125 55.484375 202.03125 60.816406 199.34375 C 59.824219 201.894531 59.414062 204.472656 59.945312 206.929688 C 53.601562 210.113281 48.648438 209.960938 45.933594 209.445312 Z M 43.9375 208.09375 C 43.503906 207.398438 43.375 206.582031 43.585938 205.800781 C 44.265625 203.246094 46.660156 200.332031 49.964844 197.355469 C 50.109375 197.226562 50.257812 197.09375 50.402344 196.964844 C 49.757812 198.175781 49.019531 199.886719 49.257812 201.0625 C 49.332031 201.4375 49.503906 201.738281 49.761719 201.957031 C 46.503906 205.933594 45.589844 208.371094 45.34375 209.269531 C 44.769531 209.035156 44.273438 208.621094 43.9375 208.09375 Z M 76.964844 179.496094 C 62.183594 189.164062 54.453125 196.472656 50.503906 201.070312 C 50.328125 201.277344 50.15625 201.480469 49.992188 201.679688 C 49.796875 201.507812 49.667969 201.285156 49.609375 200.992188 C 49.328125 199.613281 50.597656 197.292969 51.222656 196.253906 C 58.808594 189.804688 70.128906 183.230469 76.964844 179.496094 Z M 49.785156 194.929688 C 50.339844 192.464844 51.835938 190.28125 53.867188 188.371094 C 54.058594 188.359375 54.25 188.347656 54.445312 188.335938 C 56.738281 188.179688 59.53125 187.804688 62.703125 187.03125 C 58.917969 189.457031 55.128906 192.09375 51.882812 194.753906 C 51.160156 194.835938 50.460938 194.894531 49.785156 194.929688 Z M 35.605469 191.464844 C 35.539062 191.417969 35.472656 191.363281 35.40625 191.308594 C 35.960938 190.644531 37.789062 188.792969 42.375 186.523438 C 43.292969 187.542969 47.363281 188.648438 53.332031 188.394531 C 51.378906 190.308594 49.941406 192.488281 49.414062 194.945312 C 42.320312 195.234375 37.867188 193.050781 35.605469 191.464844 Z M 34.347656 189.410156 C 34.238281 188.597656 34.457031 187.804688 34.972656 187.175781 C 35.214844 186.878906 35.492188 186.589844 35.804688 186.308594 C 37.734375 184.566406 40.953125 183.125 44.824219 181.9375 C 43.734375 182.773438 42.359375 184.027344 42.089844 185.199219 C 42.007812 185.570312 42.039062 185.914062 42.179688 186.21875 C 37.574219 188.5 35.738281 190.34375 35.140625 191.0625 C 34.714844 190.609375 34.433594 190.03125 34.347656 189.410156 Z M 45.867188 181.625 C 55.433594 178.875 68.457031 177.550781 76.21875 176.964844 C 58.773438 179.683594 48.71875 183.15625 43.222656 185.71875 C 42.976562 185.832031 42.738281 185.949219 42.507812 186.058594 C 42.398438 185.828125 42.375 185.570312 42.441406 185.277344 C 42.753906 183.902344 44.867188 182.3125 45.867188 181.625 Z M 66.699219 174.609375 C 60.507812 173.832031 52.359375 172.128906 44.183594 168.457031 C 44.949219 167.726562 46.246094 167.304688 46.988281 167.039062 C 47.96875 166.691406 48.78125 164.960938 48.78125 164.960938 C 48.78125 164.960938 61.152344 171.304688 64.613281 172.933594 C 68.078125 174.5625 69.238281 173.933594 72.636719 174.511719 C 72.65625 174.515625 72.679688 174.519531 72.699219 174.523438 C 73.417969 174.777344 74.140625 175.023438 74.882812 175.265625 C 72.492188 175.183594 69.722656 174.992188 66.699219 174.609375 Z M 39.976562 166.386719 C 39.980469 166.378906 39.980469 166.375 39.980469 166.367188 C 40.140625 165.910156 41.34375 165.898438 42.101562 165.6875 C 42.859375 165.480469 43.613281 165.785156 43.242188 166.597656 C 43.011719 167.113281 42.804688 167.363281 42.5625 167.699219 C 41.699219 167.285156 40.835938 166.847656 39.976562 166.386719 Z M 38.058594 165.308594 C 38.066406 165.023438 38.160156 164.613281 38.574219 164.234375 C 39.085938 163.769531 40.03125 163.363281 41.75 163.257812 C 41.613281 163.304688 41.484375 163.34375 41.359375 163.375 C 40.386719 163.640625 39.1875 164.46875 38.160156 165.367188 C 38.125 165.34375 38.09375 165.328125 38.058594 165.308594 Z M 25.085938 155.148438 C 28.757812 153.109375 33.121094 152.589844 37.722656 153.039062 C 37.945312 153.269531 38.171875 153.496094 38.402344 153.726562 C 40.710938 156.027344 43.628906 158.617188 47.222656 161.265625 C 45.851562 161.609375 44.25 162.3125 42.898438 162.84375 C 40.25 162.796875 38.917969 163.3125 38.261719 163.914062 C 37.847656 164.300781 37.683594 164.714844 37.632812 165.058594 C 36.207031 164.207031 34.792969 163.285156 33.410156 162.285156 C 30.109375 159.902344 27.367188 157.503906 25.085938 155.148438 Z M 14.171875 134.0625 C 14.152344 133.898438 14.144531 133.730469 14.144531 133.566406 C 15.40625 133.515625 19.664062 133.664062 27.703125 137 C 27.371094 139.152344 30.410156 145.398438 37.230469 152.527344 C 32.339844 152.136719 28.167969 152.902344 24.777344 154.820312 C 16.765625 146.398438 14.65625 138.558594 14.171875 134.0625 Z M 15.375 130.210938 C 15.671875 129.867188 16.003906 129.574219 16.363281 129.332031 C 17.105469 128.835938 17.96875 128.558594 18.882812 128.527344 C 23.503906 128.367188 29.699219 131.09375 36.425781 135.308594 C 34.226562 134.824219 30.835938 134.332031 28.980469 135.332031 C 28.425781 135.628906 28.035156 136.046875 27.824219 136.566406 C 19.792969 133.234375 15.535156 133.054688 14.164062 133.117188 C 14.246094 132.050781 14.667969 131.023438 15.375 130.210938 Z M 64.570312 157.585938 C 64.515625 158.132812 64.46875 158.710938 64.433594 159.324219 C 48.367188 146.925781 36.910156 140.550781 29.496094 137.28125 C 29.0625 137.089844 28.648438 136.914062 28.234375 136.738281 C 28.410156 136.308594 28.722656 135.976562 29.191406 135.722656 C 31.308594 134.582031 35.789062 135.578125 37.597656 136.050781 C 46.5625 141.84375 56.355469 150.09375 64.570312 157.585938 Z M 38.589844 133.136719 C 42.769531 132.792969 46.960938 134.109375 50.964844 136.414062 C 51.074219 136.714844 51.1875 137.015625 51.300781 137.320312 C 52.691406 140.980469 54.707031 145.382812 57.613281 150.210938 C 51.066406 144.589844 45.160156 140.011719 39.917969 136.484375 C 39.421875 135.339844 38.976562 134.222656 38.589844 133.136719 Z M 37.328125 109.417969 C 37.378906 109.257812 37.441406 109.105469 37.507812 108.953125 C 38.679688 109.425781 42.5 111.320312 48.445312 117.667969 C 47.261719 119.496094 47.453125 126.4375 50.726562 135.746094 C 46.433594 133.371094 42.316406 132.351562 38.4375 132.703125 C 34.609375 121.726562 35.917969 113.714844 37.328125 109.417969 Z M 39.324219 106.789062 C 39.542969 106.640625 39.773438 106.511719 40.011719 106.402344 C 41.261719 105.828125 42.640625 105.796875 43.902344 106.3125 C 48.179688 108.074219 52.699219 113.109375 57.089844 119.722656 C 55.289062 118.375 52.402344 116.53125 50.296875 116.675781 C 49.667969 116.71875 49.144531 116.9375 48.738281 117.324219 C 42.789062 110.976562 38.984375 109.0625 37.707031 108.550781 C 38.101562 107.84375 38.652344 107.238281 39.324219 106.789062 Z M 70.390625 144.496094 L 70.433594 147.238281 C 70.210938 147.324219 69.949219 147.445312 69.683594 147.589844 C 61.523438 133.007812 54.785156 124.046875 49.964844 118.664062 C 49.648438 118.3125 49.34375 117.980469 49.039062 117.652344 C 49.375 117.332031 49.796875 117.15625 50.328125 117.121094 C 52.726562 116.953125 56.402344 119.707031 57.851562 120.882812 C 62.320312 127.816406 66.632812 136.289062 70.390625 144.496094 Z M 80.769531 164.582031 C 82.257812 165.054688 83.839844 165.230469 85.363281 165.609375 C 85.542969 165.652344 85.699219 165.765625 85.832031 165.925781 C 84.757812 167.238281 83.960938 168.679688 83.507812 169.597656 C 82.964844 169.371094 82.398438 169.164062 81.816406 169.039062 C 81.726562 169.019531 81.625 169.003906 81.523438 168.988281 C 80.988281 167.5625 80.371094 165.945312 79.683594 164.183594 C 80.035156 164.328125 80.398438 164.464844 80.769531 164.582031 Z M 71.472656 191.507812 C 73.550781 188.171875 76.773438 183.65625 81.703125 177.550781 C 81.773438 177.578125 81.847656 177.605469 81.925781 177.632812 C 81.734375 178.355469 81.464844 179.292969 81.101562 180.394531 C 78.011719 184.921875 74.71875 188.582031 71.472656 191.507812 Z M 61.023438 198.835938 C 55.667969 201.601562 51.519531 202.296875 50.300781 201.867188 C 50.472656 201.660156 50.648438 201.457031 50.828125 201.242188 C 54.902344 196.515625 62.992188 188.910156 78.695312 178.800781 C 76.296875 180.675781 73.09375 183.34375 70.027344 186.4375 C 66.605469 189.878906 62.929688 194.296875 61.023438 198.835938 Z M 70.277344 186.695312 C 74.476562 182.460938 78.921875 179.023438 81.207031 177.34375 C 81.253906 177.367188 81.300781 177.386719 81.355469 177.410156 C 76.003906 184.042969 72.636719 188.839844 70.566406 192.304688 C 67.40625 195.035156 64.3125 197.082031 61.523438 198.570312 C 63.449219 194.230469 66.984375 190.007812 70.277344 186.695312 Z M 61.308594 161.1875 C 66.195312 163.777344 70.71875 166.617188 74.390625 169.089844 C 72.316406 169.011719 70.074219 168.671875 67.902344 167.644531 C 62.453125 165.070312 49.171875 161.113281 49.171875 161.113281 C 48.789062 161.03125 48.332031 161.050781 47.828125 161.136719 C 44.160156 158.460938 41.042969 155.734375 38.449219 153.121094 C 46.191406 154.039062 54.527344 157.59375 61.308594 161.1875 Z M 76.667969 169.085938 C 76.617188 169.085938 76.566406 169.089844 76.515625 169.089844 C 72.363281 165.589844 68.457031 162.441406 64.789062 159.601562 C 64.902344 159.167969 65.042969 158.679688 65.199219 158.164062 C 69.640625 162.230469 73.59375 166.046875 76.667969 169.085938 Z M 66.023438 155.855469 C 66.054688 156.554688 66.175781 157.289062 66.417969 158.042969 C 66.117188 157.769531 65.816406 157.492188 65.511719 157.214844 C 65.667969 156.765625 65.835938 156.308594 66.023438 155.855469 Z M 66.601562 150.449219 C 65.871094 151.582031 65.125 153.4375 64.703125 156.476562 C 62.804688 154.746094 60.828125 152.984375 58.800781 151.226562 C 58.785156 151.21875 58.773438 151.207031 58.761719 151.195312 C 55.554688 146.0625 53.230469 141.175781 51.597656 136.792969 C 57.144531 140.140625 62.316406 145.3125 66.601562 150.449219 Z M 69.304688 147.824219 C 68.941406 148.074219 68.617188 148.382812 68.453125 148.746094 C 68.136719 148.867188 67.523438 149.191406 66.867188 150.070312 C 62.773438 145.164062 58.734375 141.238281 54.828125 138.378906 C 53.652344 137.519531 52.492188 136.757812 51.339844 136.089844 C 47.957031 126.703125 47.761719 119.773438 48.761719 118.007812 C 49.046875 118.316406 49.335938 118.632812 49.632812 118.960938 C 54.441406 124.328125 61.164062 133.269531 69.304688 147.824219 Z M 77.863281 163.234375 C 78.066406 163.363281 78.277344 163.488281 78.488281 163.605469 C 79.15625 165.300781 79.761719 166.871094 80.300781 168.285156 C 79.476562 166.550781 78.664062 164.867188 77.863281 163.234375 Z M 79.960938 168.933594 C 77.730469 165.144531 74.617188 160.199219 70.910156 155.210938 L 71.097656 155.207031 L 71.070312 153.277344 C 71.183594 153.304688 71.308594 153.328125 71.449219 153.339844 C 71.492188 153.4375 71.53125 153.539062 71.570312 153.640625 C 71.699219 153.976562 71.828125 154.3125 71.953125 154.648438 C 72.757812 156.75 73.605469 158.824219 75.027344 160.644531 C 75.648438 161.441406 76.34375 162.125 77.105469 162.703125 C 78.09375 164.703125 79.09375 166.777344 80.109375 168.929688 C 80.0625 168.929688 80.011719 168.929688 79.960938 168.933594 Z M 70.527344 153.050781 L 70.554688 154.730469 C 70.191406 154.25 69.824219 153.769531 69.453125 153.289062 C 69.21875 152.984375 68.984375 152.6875 68.75 152.390625 C 69.101562 152 69.507812 151.664062 69.992188 151.421875 C 70.089844 151.492188 70.195312 151.5625 70.304688 151.632812 C 70.304688 151.632812 69.824219 152.554688 70.527344 153.050781 Z M 77.886719 169.03125 C 74.9375 166.09375 71.089844 162.355469 66.738281 158.339844 C 66.808594 157.226562 67.113281 154.539062 68.460938 152.742188 C 68.675781 153.015625 68.890625 153.289062 69.097656 153.558594 C 73.367188 159.074219 76.949219 164.710938 79.457031 168.949219 C 78.96875 168.96875 78.441406 169 77.886719 169.03125 Z M 70.964844 146.589844 L 70.949219 145.71875 C 71.023438 145.878906 71.09375 146.039062 71.164062 146.195312 C 71.09375 146.3125 71.023438 146.441406 70.964844 146.589844 Z M 64.667969 160.070312 C 68.171875 162.785156 71.894531 165.789062 75.839844 169.105469 C 75.632812 169.109375 75.425781 169.109375 75.210938 169.109375 C 71.429688 166.539062 66.675781 163.53125 61.523438 160.796875 C 54.335938 156.988281 47.785156 154.441406 42.050781 153.238281 C 40.625 152.9375 39.253906 152.726562 37.929688 152.589844 C 30.976562 145.433594 27.945312 139.199219 28.128906 137.179688 C 28.515625 137.339844 28.910156 137.507812 29.3125 137.6875 C 36.742188 140.964844 48.25 147.371094 64.40625 159.863281 C 64.382812 160.371094 64.363281 160.894531 64.355469 161.449219 C 64.355469 161.449219 64.460938 160.90625 64.667969 160.070312 Z M 53.730469 188.015625 C 47.710938 188.332031 43.644531 187.253906 42.714844 186.359375 C 42.953125 186.242188 43.195312 186.128906 43.449219 186.011719 C 49.109375 183.378906 59.617188 179.785156 78.085938 177.042969 C 75.128906 177.761719 71.113281 178.878906 67.042969 180.429688 C 62.507812 182.160156 57.335938 184.664062 53.730469 188.015625 Z M 67.164062 180.765625 C 72.28125 178.816406 77.3125 177.558594 80.25 176.910156 C 80.25 176.910156 80.253906 176.914062 80.257812 176.914062 C 76.917969 178.652344 70.386719 182.167969 63.691406 186.402344 C 60.242188 187.320312 57.070312 187.800781 54.292969 187.980469 C 57.839844 184.820312 62.800781 182.429688 67.164062 180.765625 Z M 68.476562 200.992188 C 68.328125 200.929688 68.15625 200.804688 68.03125 200.550781 C 67.691406 199.847656 67.652344 197.890625 70.828125 192.5625 C 71.113281 192.316406 71.402344 192.0625 71.691406 191.800781 C 74.632812 189.148438 77.714844 185.808594 80.683594 181.625 C 78.824219 186.882812 75.136719 194.828125 68.476562 200.992188 Z M 93.511719 162.5625 C 95.257812 161.726562 96.292969 161.617188 97.875 160.464844 C 97.339844 161.75 96.390625 163.320312 95.234375 164.988281 C 94.820312 164.585938 94.363281 164.21875 93.863281 163.902344 C 93.636719 163.296875 93.375 162.628906 93.511719 162.5625 Z M 126.179688 104.75 L 107.550781 125.613281 L 108.046875 124.675781 C 108.214844 124.261719 107.746094 123.683594 107.394531 123.964844 C 106.339844 124.808594 104.199219 125.863281 103.359375 126.273438 C 101.914062 126.980469 101.777344 128.78125 101.761719 130.585938 C 101.742188 132.386719 103.871094 136.027344 103.871094 136.027344 C 101.960938 146.675781 100.070312 153.417969 98.4375 158.78125 C 98.3125 158.632812 98.152344 158.476562 97.96875 158.304688 C 97.492188 157.859375 97.421875 157.445312 97.550781 156.859375 C 97.640625 156.457031 97.5625 156.019531 97.558594 155.597656 C 97.457031 155.597656 97.359375 155.597656 97.257812 155.597656 C 97.609375 154.960938 97.761719 154.429688 96.847656 154.140625 C 96.640625 154.074219 96.496094 153.554688 96.46875 153.234375 C 96.429688 152.777344 96.445312 152.320312 96.460938 151.855469 C 96.46875 151.585938 96.230469 151.371094 95.957031 151.414062 C 95.898438 151.421875 95.835938 151.433594 95.777344 151.441406 C 94.996094 151.480469 94.382812 151.304688 93.902344 151.015625 C 93.605469 150.835938 93.355469 150.613281 93.148438 150.371094 C 92.628906 149.757812 92.382812 149.027344 92.277344 148.589844 C 92.253906 148.464844 92.226562 148.339844 92.203125 148.214844 C 92.332031 148.171875 92.289062 148.1875 92.417969 148.144531 C 92.539062 148.402344 92.660156 148.664062 92.855469 149.082031 C 93.046875 148.542969 93.230469 148.167969 93.316406 147.773438 C 93.660156 146.164062 92.894531 144.929688 91.96875 143.710938 C 90.558594 141.855469 88.046875 140.984375 85.8125 141.648438 C 85.621094 141.703125 85.363281 141.695312 85.1875 141.609375 C 83.433594 140.734375 81.65625 140.84375 79.949219 141.621094 C 78.589844 142.242188 77.230469 142.929688 76.023438 143.796875 C 75.753906 143.992188 75.492188 144.191406 75.230469 144.394531 C 74.796875 144.730469 74.375 145.078125 73.960938 145.4375 C 73.960938 145.4375 72.804688 144.980469 71.859375 145.515625 C 71.550781 144.828125 71.234375 144.140625 70.917969 143.449219 C 60.734375 121.355469 51.757812 108.582031 44.238281 105.488281 C 42.75 104.875 41.117188 104.914062 39.640625 105.59375 C 38.148438 106.28125 36.996094 107.574219 36.480469 109.140625 C 34.921875 113.882812 33.480469 123.039062 38.578125 135.59375 C 30.222656 130.140625 23.617188 127.472656 18.851562 127.636719 C 17.238281 127.691406 15.765625 128.398438 14.699219 129.625 C 13.625 130.867188 13.105469 132.519531 13.285156 134.15625 C 13.925781 140.113281 17.328125 151.785156 32.886719 163.007812 C 34.390625 164.09375 35.925781 165.085938 37.476562 166 C 36.644531 166.808594 36.027344 167.582031 35.917969 167.960938 C 35.648438 168.851562 37.074219 168.703125 37.074219 168.703125 C 37.074219 168.703125 36.882812 169.621094 36.824219 170.289062 C 36.765625 170.953125 37.714844 170.683594 37.714844 170.683594 C 37.714844 170.683594 37.890625 171.171875 38.640625 171.601562 C 39.390625 172.035156 39.574219 170.511719 39.832031 169.144531 C 39.964844 168.441406 39.960938 167.851562 39.941406 167.378906 C 40.65625 167.753906 41.371094 168.117188 42.085938 168.460938 C 42.082031 168.464844 42.082031 168.464844 42.082031 168.46875 C 41.597656 169.371094 42.0625 170.132812 42.722656 170.703125 C 43.378906 171.273438 43.234375 170.453125 43.660156 169.230469 C 43.664062 169.222656 43.667969 169.214844 43.671875 169.203125 C 52 172.96875 60.308594 174.707031 66.613281 175.496094 C 70.425781 175.976562 73.847656 176.160156 76.609375 176.203125 C 64.875 177.039062 40.210938 179.617188 34.414062 186.722656 C 33.773438 187.507812 33.5 188.496094 33.640625 189.507812 C 33.78125 190.53125 34.347656 191.460938 35.195312 192.054688 C 37.6875 193.800781 42.746094 196.253906 50.898438 195.570312 C 46.785156 199.0625 43.703125 202.554688 42.890625 205.613281 C 42.632812 206.59375 42.789062 207.609375 43.332031 208.476562 C 43.882812 209.347656 44.78125 209.960938 45.800781 210.152344 C 49.195312 210.792969 55.980469 210.90625 64.539062 205.035156 C 64.496094 205.109375 64.453125 205.183594 64.414062 205.257812 C 64.164062 205.765625 63.941406 206.316406 63.761719 206.921875 C 63.761719 206.921875 63.242188 209.234375 63.578125 212.132812 C 63.378906 212.332031 63.171875 212.535156 62.945312 212.738281 C 62.519531 213.222656 62.09375 213.707031 61.679688 214.199219 C 59.386719 216.914062 57.847656 220.097656 56.183594 223.199219 C 55.484375 224.5 54.84375 225.832031 54.175781 227.148438 L 54.089844 227.304688 C 53.789062 227.210938 53.484375 227.113281 53.183594 227.015625 C 52.96875 226.945312 52.757812 226.871094 52.417969 226.753906 C 52.417969 226.753906 48.4375 220.855469 46.796875 219.035156 C 45.460938 217.796875 44.980469 217.753906 43.402344 218.71875 C 43.207031 218.835938 43.007812 218.953125 42.816406 219.074219 C 40.566406 220.480469 38.265625 221.292969 35.640625 220.007812 C 34.597656 219.496094 33.539062 219.703125 32.621094 220.453125 C 31.632812 221.265625 30.625 222.058594 29.652344 222.890625 C 29.3125 223.183594 29.015625 223.550781 28.765625 223.929688 C 28.464844 224.382812 28.640625 224.726562 29.175781 224.667969 C 29.707031 224.613281 30.246094 224.4375 30.738281 224.210938 C 33.40625 222.996094 36.285156 223.757812 38.589844 225.5 C 40.617188 226.316406 43.703125 227.851562 47.84375 230.722656 C 49.03125 231.292969 50.222656 231.824219 51.351562 232.445312 L 50.726562 233.617188 L 48.066406 235.546875 C 48.085938 235.558594 48.109375 235.566406 48.128906 235.574219 C 47.972656 235.695312 47.832031 235.804688 47.6875 235.90625 C 46.347656 236.859375 44.945312 237.734375 43.691406 238.789062 C 42.179688 240.0625 40.695312 241.398438 39.378906 242.871094 C 37.601562 244.863281 37.070312 247.433594 36.484375 249.964844 C 35.742188 253.191406 34.957031 256.410156 34.101562 259.605469 C 33.539062 261.71875 32.320312 263.34375 30.160156 264.117188 C 29.753906 264.261719 29.382812 264.5 29.003906 264.714844 C 27.109375 265.785156 26.519531 267.476562 27.492188 269.402344 C 28.136719 270.679688 28.121094 271.882812 27.585938 273.160156 C 27.078125 274.378906 26.542969 275.601562 26.171875 276.867188 C 25.675781 278.554688 26.234375 279.640625 27.753906 280.535156 C 28.304688 280.863281 28.722656 281.414062 29.265625 281.773438 C 29.898438 282.191406 30.578125 282.558594 31.277344 282.859375 C 31.679688 283.035156 31.90625 282.761719 31.753906 282.347656 C 31.589844 281.898438 31.421875 281.425781 31.132812 281.058594 C 30.277344 279.96875 30.386719 278.863281 30.949219 277.714844 C 31.171875 277.265625 31.375 276.796875 31.660156 276.386719 C 32.964844 274.480469 34.292969 272.589844 35.621094 270.699219 C 36.738281 269.113281 37.578125 267.414062 37.972656 265.488281 C 38.132812 264.695312 38.421875 263.894531 38.804688 263.179688 C 40.089844 260.808594 41.378906 258.433594 42.792969 256.136719 C 44.984375 252.570312 47.253906 249.050781 49.550781 245.550781 C 50.226562 244.523438 51.074219 243.613281 52.296875 243.144531 C 52.863281 242.925781 53.425781 242.636719 53.917969 242.277344 C 55.390625 241.195312 56.628906 239.910156 57.160156 238.019531 L 58.160156 236.925781 C 60.355469 238.433594 62.535156 239.964844 64.714844 241.496094 C 66.925781 243.050781 69.097656 244.640625 71.785156 245.304688 C 73.621094 245.757812 75.46875 246.035156 77.351562 245.667969 C 79.175781 245.308594 80.429688 244.335938 81 242.472656 C 82.5 237.566406 83.085938 232.527344 83.046875 227.433594 C 83.015625 223.148438 82.828125 218.863281 82.691406 214.578125 C 83.285156 213.332031 84.367188 211.558594 84.917969 211.082031 C 86.257812 209.917969 87.648438 208.75 88.726562 207.359375 C 90.5 205.074219 92.0625 202.621094 93.675781 200.210938 C 94.847656 198.464844 95.90625 196.636719 96.808594 194.738281 C 97.273438 193.757812 97.699219 192.753906 98.078125 191.734375 C 98.335938 191.046875 98.519531 189.378906 99.359375 189.199219 C 101.769531 188.679688 104.453125 187.386719 105.359375 184.898438 C 105.863281 183.523438 104.503906 182.269531 103.71875 181.308594 C 103.457031 180.992188 103.171875 180.695312 102.894531 180.394531 C 102.273438 179.722656 101.621094 179.082031 101.03125 178.382812 C 100.390625 177.625 99.800781 176.816406 99.625 175.796875 C 99.625 175.695312 99.625 175.695312 99.632812 175.613281 C 99.632812 175.613281 99.511719 174.03125 98.960938 171.976562 C 100.882812 167.804688 102.582031 163.910156 103.03125 163.035156 C 104.007812 161.121094 107.34375 137.605469 107.355469 136.28125 C 107.367188 134.960938 109.328125 132.160156 108.734375 130.167969 C 108.515625 129.4375 107.960938 128.664062 107.453125 128.066406 L 127.019531 105.488281 C 127.222656 105.257812 127.199219 104.90625 126.96875 104.703125 C 126.738281 104.5 126.386719 104.519531 126.179688 104.75 " fill-opacity="1" fill-rule="nonzero"/></g></g></g></g></g><path stroke-linecap="butt" transform="matrix(0.75, 0, 0, 0.75, 119.71395, 37.124119)" fill="none" stroke-linejoin="miter" d="M 149.870993 159.464727 C 146.313701 160.714727 142.719951 161.167852 139.162659 161.167852 C 127.09495 161.167852 119.032449 154.959519 115.136616 143.647018 C 110.18349 129.3866 115.287657 114.516808 125.391825 88.329306 C 126.943908 83.829306 128.647033 79.173055 129.100158 74.068888 C 129.402242 68.204305 126.147033 62.751179 120.094949 62.147013 C 114.381407 62.147013 110.334532 65.100138 106.626198 69.110555 C 95.615781 80.87618 88.048072 96.844931 81.350155 111.412641 C 82.141822 108.954307 83.05328 106.454307 83.844947 103.995974 C 86.308489 96.69389 88.652239 89.428264 90.959531 81.975139 C 93.303281 73.917847 95.615781 66.157429 95.157448 58.589721 C 95.157448 51.287637 90.506406 48.490762 85.245989 48.490762 C 68.975154 48.490762 56.261612 72.516805 49.756403 85.683472 C 50.36057 82.12618 50.813695 78.266805 50.209528 74.21993 C 48.355361 61.053262 36.891819 48.188678 23.079318 48.188678 C 9.610567 48.188678 -1.550892 64.001179 0.605358 76.412638 C 2.157441 84.469931 7.605359 90.032431 14.568901 90.032431 C 20.620984 90.032431 27.131401 85.532431 28.188693 79.516805 C 28.678277 77.318889 28.188693 75.011597 27.433485 73.15743 C 26.485568 71.115763 25.126193 69.412638 23.57411 68.011596 C 23.57411 67.860555 23.381401 67.860555 23.23036 68.011596 C 23.079318 68.011596 23.079318 68.204305 23.23036 68.355346 C 24.631401 69.902221 25.881401 71.605346 26.673068 73.459513 C 27.584526 75.31368 27.735568 77.318889 27.433485 79.324097 C 26.485568 83.225139 23.079318 86.324097 19.219943 87.574098 C 17.667859 88.178264 16.272026 88.329306 14.870984 88.329306 C 8.209525 88.329306 3.709525 82.579306 2.949108 75.923055 C 1.402233 64.152221 11.766817 51.58972 23.23036 51.58972 C 35.188694 51.58972 44.495986 64.303263 45.553278 74.860555 C 46.199111 78.568889 45.553278 82.579306 44.798069 86.626181 C 44.006403 90.641806 42.943903 94.688681 41.850152 98.699098 C 37.647027 114.818891 32.537652 130.782434 27.88661 147.240768 C 28.037652 147.397018 28.188693 147.240768 28.188693 147.240768 C 35.641819 132.032434 43.699111 110.959516 47.902236 94.386598 C 48.506403 93.136598 49.11057 91.735556 49.756403 90.334514 C 53.313695 83.527222 57.022028 76.865763 61.370987 70.662638 C 63.678279 67.709513 66.027237 64.605346 68.485571 61.995971 C 72.532446 57.647012 78.245988 52.386595 84.605364 52.386595 C 88.048072 52.386595 90.808489 54.240762 90.808489 58.891804 C 90.959531 62.298054 90.204322 66.006388 89.407447 69.56368 C 88.501197 73.308472 87.55328 77.016805 86.495989 80.574097 C 84.14703 87.876181 81.688697 95.141806 79.344947 102.44389 C 74.537655 117.162641 70.037654 131.881392 66.933487 147.240768 C 66.782446 148.152226 67.272029 149.251185 68.334529 149.553268 C 68.485571 149.553268 68.673071 149.70431 68.975154 149.70431 C 69.735571 149.70431 70.678279 149.094935 70.980363 148.303268 C 75.938696 133.735559 100.719948 64.949096 119.032449 64.949096 C 119.339741 64.949096 119.641824 64.949096 119.943908 64.949096 C 124.745991 65.251179 126.943908 69.75118 126.600158 73.917847 C 126.298075 78.417847 124.745991 83.074097 123.199116 87.574098 C 113.282449 115.157433 108.782448 130.329309 113.928282 144.14181 C 117.636616 153.902227 124.902241 160.865769 135.605367 161.808477 C 141.016826 161.808477 144.761618 161.620977 150.022035 159.917852 C 150.022035 159.917852 150.173076 159.766811 150.173076 159.615769 C 150.022035 159.464727 149.870993 159.464727 149.870993 159.464727 Z M 149.870993 159.464727 " stroke="#ffffff" stroke-width="2.32482" stroke-opacity="1" stroke-miterlimit="4"/><g fill="#ffffff" fill-opacity="1"><g transform="translate(119.71395, 148.124111)"><g><path d="M 112.398438 8.601562 C 109.726562 9.53125 107.050781 9.878906 104.378906 9.878906 C 95.3125 9.878906 89.269531 5.230469 86.363281 -3.253906 C 82.644531 -13.949219 86.480469 -25.105469 94.035156 -44.75 C 95.195312 -48.121094 96.476562 -51.609375 96.824219 -55.445312 C 97.054688 -59.859375 94.617188 -63.929688 90.082031 -64.394531 C 85.78125 -64.394531 82.757812 -62.1875 79.96875 -59.164062 C 71.71875 -50.328125 66.019531 -38.359375 61.023438 -27.429688 C 61.605469 -29.292969 62.300781 -31.152344 62.882812 -33.011719 C 64.742188 -38.472656 66.488281 -43.9375 68.230469 -49.515625 C 69.972656 -55.558594 71.71875 -61.371094 71.367188 -67.066406 C 71.367188 -72.53125 67.882812 -74.621094 63.929688 -74.621094 C 51.722656 -74.621094 42.191406 -56.605469 37.3125 -46.726562 C 37.777344 -49.398438 38.125 -52.304688 37.660156 -55.328125 C 36.265625 -65.207031 27.664062 -74.855469 17.320312 -74.855469 C 7.207031 -74.855469 -1.164062 -63 0.464844 -53.699219 C 1.628906 -47.65625 5.695312 -43.472656 10.925781 -43.472656 C 15.460938 -43.472656 20.339844 -46.84375 21.15625 -51.375 C 21.503906 -53.003906 21.15625 -54.746094 20.574219 -56.140625 C 19.875 -57.652344 18.828125 -58.929688 17.667969 -59.976562 C 17.667969 -60.09375 17.550781 -60.09375 17.433594 -59.976562 C 17.320312 -59.976562 17.320312 -59.859375 17.433594 -59.746094 C 18.480469 -58.582031 19.410156 -57.304688 19.992188 -55.910156 C 20.691406 -54.515625 20.804688 -53.003906 20.574219 -51.492188 C 19.875 -48.585938 17.320312 -46.261719 14.414062 -45.332031 C 13.25 -44.867188 12.203125 -44.75 11.160156 -44.75 C 6.160156 -44.75 2.789062 -49.050781 2.207031 -54.050781 C 1.046875 -62.882812 8.832031 -72.296875 17.433594 -72.296875 C 26.386719 -72.296875 33.359375 -62.765625 34.171875 -54.863281 C 34.636719 -52.074219 34.171875 -49.050781 33.59375 -46.027344 C 33.011719 -43.007812 32.195312 -39.984375 31.382812 -36.960938 C 28.246094 -24.875 24.410156 -12.902344 20.921875 -0.582031 C 21.039062 -0.464844 21.15625 -0.582031 21.15625 -0.582031 C 26.734375 -11.972656 32.777344 -27.78125 35.917969 -40.21875 C 36.382812 -41.148438 36.847656 -42.191406 37.3125 -43.238281 C 39.984375 -48.355469 42.773438 -53.351562 46.027344 -58 C 47.773438 -60.210938 49.515625 -62.535156 51.375 -64.511719 C 54.398438 -67.765625 58.699219 -71.71875 63.464844 -71.71875 C 66.019531 -71.71875 68.113281 -70.320312 68.113281 -66.835938 C 68.230469 -64.277344 67.648438 -61.488281 67.066406 -58.816406 C 66.371094 -56.023438 65.671875 -53.234375 64.859375 -50.5625 C 63.117188 -45.097656 61.253906 -39.636719 59.511719 -34.171875 C 55.910156 -23.128906 52.539062 -12.089844 50.214844 -0.582031 C 50.097656 0.117188 50.445312 0.929688 51.257812 1.164062 C 51.375 1.164062 51.492188 1.277344 51.722656 1.277344 C 52.304688 1.277344 53.003906 0.8125 53.234375 0.234375 C 56.957031 -10.695312 75.554688 -62.300781 89.269531 -62.300781 C 89.5 -62.300781 89.734375 -62.300781 89.964844 -62.300781 C 93.570312 -62.070312 95.195312 -58.699219 94.964844 -55.558594 C 94.730469 -52.191406 93.570312 -48.703125 92.40625 -45.332031 C 84.96875 -24.640625 81.597656 -13.25 85.433594 -2.90625 C 88.222656 4.417969 93.683594 9.648438 101.707031 10.34375 C 105.773438 10.34375 108.5625 10.230469 112.515625 8.949219 C 112.515625 8.949219 112.632812 8.832031 112.632812 8.71875 C 112.515625 8.601562 112.398438 8.601562 112.398438 8.601562 Z M 112.398438 8.601562 "/></g></g></g><g fill="#ffffff" fill-opacity="1"><g transform="translate(212.499981, 146.683759)"><g><path d="M 10.46875 1.28125 C 9.21875 1.28125 7.875 0.910156 6.4375 0.171875 C 5.007812 -0.566406 3.789062 -1.613281 2.78125 -2.96875 C 1.78125 -4.320312 1.28125 -5.769531 1.28125 -7.3125 C 1.28125 -8.863281 1.628906 -10.335938 2.328125 -11.734375 C 3.878906 -14.992188 6.378906 -18.148438 9.828125 -21.203125 C 13.273438 -24.265625 16.859375 -26.878906 20.578125 -29.046875 C 24.296875 -31.222656 27.238281 -32.582031 29.40625 -33.125 C 31.570312 -33.664062 33.679688 -33.9375 35.734375 -33.9375 C 37.796875 -33.9375 39.5625 -33.410156 41.03125 -32.359375 C 42.5 -31.316406 43.234375 -30.21875 43.234375 -29.0625 C 43.234375 -28.675781 43.191406 -28.441406 43.109375 -28.359375 C 43.035156 -28.285156 42.847656 -28.328125 42.546875 -28.484375 C 41.609375 -29.953125 39.6875 -30.6875 36.78125 -30.6875 C 33.875 -30.6875 30.582031 -29.734375 26.90625 -27.828125 C 23.226562 -25.929688 19.757812 -23.550781 16.5 -20.6875 C 13.789062 -18.132812 11.410156 -15.25 9.359375 -12.03125 C 7.304688 -8.8125 6.28125 -6.46875 6.28125 -5 C 6.28125 -2.132812 7.09375 -0.703125 8.71875 -0.703125 C 10.34375 -0.703125 12.820312 -2.019531 16.15625 -4.65625 C 21.65625 -9.300781 25.414062 -12.707031 27.4375 -14.875 C 34.5625 -22.550781 38.394531 -26.390625 38.9375 -26.390625 C 39.863281 -26.390625 40.984375 -26.117188 42.296875 -25.578125 C 43.617188 -25.035156 44.050781 -24.375 43.59375 -23.59375 C 39.632812 -18.019531 37.304688 -12.398438 36.609375 -6.734375 C 36.535156 -6.046875 36.5 -5.15625 36.5 -4.0625 C 36.5 -2.976562 36.804688 -2.085938 37.421875 -1.390625 C 38.585938 -0.148438 40.175781 -0.0703125 42.1875 -1.15625 C 44.207031 -2.25 47.019531 -4.421875 50.625 -7.671875 C 54.226562 -10.921875 57.113281 -14.097656 59.28125 -17.203125 C 59.59375 -17.585938 59.941406 -17.679688 60.328125 -17.484375 C 60.710938 -17.296875 60.90625 -17.125 60.90625 -16.96875 C 60.90625 -15.8125 59.0625 -13.273438 55.375 -9.359375 C 51.695312 -5.441406 48.890625 -2.785156 46.953125 -1.390625 C 43.316406 1.316406 39.945312 2.671875 36.84375 2.671875 C 33.894531 2.671875 31.921875 1.195312 30.921875 -1.75 C 30.679688 -2.675781 30.5625 -3.71875 30.5625 -4.875 C 30.5625 -8.363281 31.300781 -12.046875 32.78125 -15.921875 C 32.46875 -15.765625 31.03125 -14.210938 28.46875 -11.265625 C 25.914062 -8.328125 22.953125 -5.5 19.578125 -2.78125 C 16.210938 -0.0703125 13.175781 1.28125 10.46875 1.28125 Z M 50.671875 -50.328125 C 50.828125 -50.554688 51.210938 -50.671875 51.828125 -50.671875 C 52.453125 -50.671875 52.765625 -50.476562 52.765625 -50.09375 C 52.765625 -48.3125 51.21875 -46.335938 48.125 -44.171875 C 46.800781 -43.160156 45.613281 -42.65625 44.5625 -42.65625 C 43.519531 -42.65625 42.671875 -42.769531 42.015625 -43 C 41.359375 -43.238281 40.273438 -43.6875 38.765625 -44.34375 C 37.253906 -45 36.1875 -45.40625 35.5625 -45.5625 C 32.082031 -46.644531 29.914062 -46.914062 29.0625 -46.375 C 26.5 -45.757812 24.5625 -44.40625 23.25 -42.3125 C 23.09375 -42.070312 22.878906 -41.953125 22.609375 -41.953125 C 22.335938 -41.953125 22.082031 -42.03125 21.84375 -42.1875 C 21.613281 -42.34375 21.5 -42.476562 21.5 -42.59375 C 21.5 -42.71875 21.882812 -43.320312 22.65625 -44.40625 C 23.4375 -45.488281 24.3125 -46.59375 25.28125 -47.71875 C 26.25 -48.84375 27.410156 -49.75 28.765625 -50.4375 C 30.117188 -51.132812 31.203125 -51.484375 32.015625 -51.484375 C 32.835938 -51.484375 33.59375 -51.367188 34.28125 -51.140625 C 34.976562 -50.910156 36.414062 -50.210938 38.59375 -49.046875 C 42.082031 -47.347656 44.519531 -46.5 45.90625 -46.5 C 48.15625 -46.5 49.742188 -47.773438 50.671875 -50.328125 Z M 50.671875 -50.328125 "/></g></g></g><g fill="#ffffff" fill-opacity="1"><g transform="translate(265.615509, 146.683759)"><g><path d="M 28.703125 -12.78125 C 30.097656 -15.65625 30.796875 -17.863281 30.796875 -19.40625 C 30.796875 -20.957031 30.617188 -22.175781 30.265625 -23.0625 C 29.921875 -23.957031 30.078125 -24.710938 30.734375 -25.328125 C 31.398438 -25.953125 32.238281 -26.1875 33.25 -26.03125 C 34.789062 -25.644531 35.5625 -23.898438 35.5625 -20.796875 C 35.5625 -17.703125 33.742188 -13.632812 30.109375 -8.59375 C 30.179688 -6.507812 31.265625 -5.46875 33.359375 -5.46875 C 35.453125 -5.46875 38.628906 -7.710938 42.890625 -12.203125 C 44.898438 -14.523438 46.15625 -16.035156 46.65625 -16.734375 C 47.164062 -17.429688 47.613281 -17.679688 48 -17.484375 C 48.394531 -17.296875 48.59375 -17.125 48.59375 -16.96875 C 48.59375 -16.195312 47.195312 -14.179688 44.40625 -10.921875 C 39.988281 -5.503906 36.070312 -2.796875 32.65625 -2.796875 C 30.414062 -2.796875 28.828125 -3.765625 27.890625 -5.703125 C 26.347656 -4.066406 24.835938 -2.550781 23.359375 -1.15625 C 20.335938 1.394531 16.96875 2.671875 13.25 2.671875 C 11.15625 2.671875 9.410156 2.164062 8.015625 1.15625 C 5.304688 -0.46875 3.953125 -3.375 3.953125 -7.5625 C 3.953125 -12.125 5.5 -16.769531 8.59375 -21.5 C 10.382812 -24.289062 12.476562 -26.734375 14.875 -28.828125 C 18.675781 -32.160156 22.28125 -33.828125 25.6875 -33.828125 C 26.539062 -33.828125 27.351562 -33.707031 28.125 -33.46875 C 30.445312 -32.695312 31.609375 -31.226562 31.609375 -29.0625 C 31.609375 -27.28125 31.144531 -26.390625 30.21875 -26.390625 C 29.832031 -26.546875 29.640625 -27.125 29.640625 -28.125 C 29.640625 -29.519531 28.863281 -30.21875 27.3125 -30.21875 C 24.601562 -30.21875 21.117188 -27.738281 16.859375 -22.78125 C 12.597656 -17.820312 10.039062 -12.820312 9.1875 -7.78125 C 9.03125 -6.9375 8.953125 -5.988281 8.953125 -4.9375 C 8.953125 -3.894531 9.300781 -2.691406 10 -1.328125 C 10.695312 0.0234375 11.992188 0.703125 13.890625 0.703125 C 15.785156 0.703125 17.859375 -0.148438 20.109375 -1.859375 C 22.359375 -3.566406 24.375 -5.738281 26.15625 -8.375 L 25.796875 -9.0625 C 25.492188 -10.300781 25.648438 -11.304688 26.265625 -12.078125 C 26.890625 -12.859375 27.703125 -13.09375 28.703125 -12.78125 Z M 28.703125 -12.78125 "/></g></g></g><g fill="#ffffff" fill-opacity="1"><g transform="translate(306.411028, 146.683759)"><g><path d="M 5.8125 1.15625 C 4.800781 2.320312 4.585938 3.253906 5.171875 3.953125 C 5.753906 4.648438 6.410156 5 7.140625 5 C 7.878906 5 8.640625 4.882812 9.421875 4.65625 C 12.742188 3.644531 15.972656 1.648438 19.109375 -1.328125 C 22.253906 -4.316406 23.828125 -7.363281 23.828125 -10.46875 C 23.828125 -12.164062 21.925781 -14.023438 18.125 -16.046875 C 16.34375 -16.972656 15.335938 -17.515625 15.109375 -17.671875 C 13.015625 -19.066406 11.695312 -20.460938 11.15625 -21.859375 C 10.070312 -19.992188 8.328125 -17.316406 5.921875 -13.828125 C 5.378906 -13.210938 4.875 -13.078125 4.40625 -13.421875 C 3.945312 -13.773438 3.910156 -14.257812 4.296875 -14.875 C 7.472656 -19.21875 9.566406 -22.859375 10.578125 -25.796875 C 11.117188 -30.066406 14.21875 -33.90625 19.875 -37.3125 C 25.53125 -40.71875 30.679688 -42.421875 35.328125 -42.421875 C 38.273438 -42.421875 40.347656 -41.894531 41.546875 -40.84375 C 42.753906 -39.800781 43.359375 -38.773438 43.359375 -37.765625 C 43.359375 -36.765625 43.066406 -35.601562 42.484375 -34.28125 C 41.898438 -32.96875 40.71875 -31.726562 38.9375 -30.5625 C 38.46875 -30.257812 38.082031 -30.335938 37.78125 -30.796875 C 37.625 -31.265625 37.953125 -31.90625 38.765625 -32.71875 C 39.578125 -33.53125 40.097656 -34.632812 40.328125 -36.03125 C 40.566406 -37.425781 39.945312 -38.28125 38.46875 -38.59375 C 38.238281 -38.59375 38.007812 -38.59375 37.78125 -38.59375 C 34.757812 -38.59375 30.976562 -37.46875 26.4375 -35.21875 C 21.90625 -32.96875 18.363281 -30.0625 15.8125 -26.5 C 14.800781 -25.1875 14.296875 -23.847656 14.296875 -22.484375 C 14.296875 -21.128906 15.226562 -19.910156 17.09375 -18.828125 C 17.863281 -18.359375 19.175781 -17.617188 21.03125 -16.609375 C 22.894531 -15.609375 24.210938 -14.875 24.984375 -14.40625 C 25.765625 -13.945312 26.695312 -13.210938 27.78125 -12.203125 C 28.863281 -11.191406 29.445312 -10.265625 29.53125 -9.421875 C 29.914062 -7.085938 28.828125 -4.53125 26.265625 -1.75 C 22.628906 2.28125 17.207031 5.109375 10 6.734375 C 8.375 7.128906 6.726562 7.328125 5.0625 7.328125 C 3.394531 7.328125 2.25 6.707031 1.625 5.46875 C 1.394531 5.15625 1.28125 4.664062 1.28125 4 C 1.28125 3.34375 1.898438 2.28125 3.140625 0.8125 C 4.296875 -0.351562 6.15625 -1.476562 8.71875 -2.5625 C 8.945312 -2.632812 9.140625 -2.59375 9.296875 -2.4375 C 9.453125 -2.28125 9.488281 -2.085938 9.40625 -1.859375 C 9.332031 -1.628906 8.925781 -1.359375 8.1875 -1.046875 C 7.457031 -0.734375 6.664062 0 5.8125 1.15625 Z M 5.8125 1.15625 "/></g></g></g><path stroke-linecap="butt" transform="matrix(0.938778, 0, 0, 0.938778, 110.20931, 134.197491)" fill="none" stroke-linejoin="miter" d="M 68.978525 52.384589 C 65.874423 52.234793 62.470731 51.893592 59.216834 51.893592 C 50.661831 51.893592 42.45219 53.295846 37.192694 59.04634 C 36.098353 60.444433 35.187096 62.14628 34.733547 63.852287 C 30.988653 58.892383 25.878953 55.184937 19.978664 53.295846 C 18.426613 52.992094 16.724767 52.688341 15.172716 52.688341 C -0.152223 52.688341 -12.560306 69.752576 -7.30081 84.13297 C -4.958171 89.883463 -1.400521 94.081906 5.107273 94.081906 C 11.615067 94.081906 18.917611 89.729506 19.371159 82.768164 C 19.824707 78.569722 17.36556 74.862276 14.719168 72.211723 L 14.565211 72.211723 C 14.565211 72.061928 14.415415 72.061928 14.26562 72.211723 C 14.26562 72.211723 14.26562 72.36568 14.26562 72.515476 C 17.065968 75.161868 19.071567 78.873474 18.613858 82.580919 C 17.819108 88.635165 11.311314 92.683812 5.560821 92.683812 C -0.152223 92.683812 -3.709873 88.934757 -5.411719 83.525465 C -9.759957 70.056329 2.157128 55.792443 14.868964 55.792443 C 16.271219 55.792443 17.669312 55.942238 19.071567 56.245991 C 29.436602 59.649684 37.192694 70.360081 37.192694 81.37007 C 37.192694 97.335803 25.579361 137.44362 15.81767 146.751763 C 13.620666 148.944606 11.465271 149.855864 9.459672 149.855864 C 2.797921 149.855864 -0.605771 138.841714 6.205775 134.376968 C 6.963076 133.736175 8.057417 133.282627 9.006124 133.282627 C 9.91322 133.282627 10.857766 133.736175 11.311314 134.68072 C 11.465271 134.68072 11.615067 134.68072 11.615067 134.530925 C 11.161518 132.978874 9.91322 132.487877 8.664922 132.487877 C 7.603869 132.487877 6.355571 132.829078 5.411025 133.282627 C -3.555916 138.088574 0.605078 153.409353 9.609468 153.409353 C 10.366769 153.409353 11.161518 153.259557 12.068615 152.955804 C 14.565211 152.35246 16.57081 150.950205 18.426613 149.552112 C 29.286807 139.790421 35.187096 116.709389 38.291197 103.502395 C 40.147 104.451102 42.943188 105.054446 45.102743 105.054446 C 47.561891 105.054446 57.36103 103.048847 60.423522 102.291546 C 60.614927 102.291546 60.614927 102.14175 60.764723 101.954506 C 60.764723 101.954506 60.614927 101.800549 60.423522 101.800549 C 58.57188 101.496796 56.566281 101.347001 54.710478 101.043248 C 51.91429 100.743656 48.656232 99.948907 45.556292 99.948907 C 43.700488 99.948907 40.296796 100.743656 38.744745 101.650753 C 39.35225 98.887853 39.993043 96.087505 40.446591 93.287156 C 40.90014 89.429915 41.395298 85.381268 41.241341 81.216113 C 41.054097 75.012072 38.894541 70.056329 35.490848 64.946628 C 44.948787 56.096195 59.820178 54.69394 72.232422 54.69394 C 75.332362 54.69394 78.436463 54.843736 81.498954 54.997693 C 81.69036 54.997693 81.840156 54.843736 81.840156 54.69394 C 77.491918 53.445642 73.139518 52.838137 68.978525 52.384589 Z M 68.978525 52.384589 " stroke="#ffffff" stroke-width="2.32482" stroke-opacity="1" stroke-miterlimit="4"/><g fill="#ffffff" fill-opacity="1"><g transform="translate(110.20931, 273.136662)"><g><path d="M 64.742188 -89.769531 C 61.835938 -89.914062 58.632812 -90.203125 55.578125 -90.203125 C 47.574219 -90.203125 39.863281 -88.894531 34.917969 -83.511719 C 33.898438 -82.203125 33.027344 -80.601562 32.589844 -79.003906 C 29.097656 -83.65625 24.296875 -87.148438 18.769531 -88.894531 C 17.3125 -89.1875 15.714844 -89.476562 14.257812 -89.476562 C -0.144531 -89.476562 -11.785156 -73.472656 -6.839844 -59.941406 C -4.65625 -54.558594 -1.308594 -50.632812 4.800781 -50.632812 C 10.910156 -50.632812 17.75 -54.703125 18.1875 -61.253906 C 18.621094 -65.179688 16.296875 -68.671875 13.820312 -71.144531 L 13.675781 -71.144531 C 13.675781 -71.289062 13.53125 -71.289062 13.386719 -71.144531 C 13.386719 -71.144531 13.386719 -71 13.386719 -70.855469 C 16.003906 -68.382812 17.894531 -64.890625 17.460938 -61.398438 C 16.730469 -55.722656 10.621094 -51.941406 5.238281 -51.941406 C -0.144531 -51.941406 -3.492188 -55.433594 -5.09375 -60.523438 C -9.164062 -73.183594 2.035156 -86.566406 13.96875 -86.566406 C 15.277344 -86.566406 16.585938 -86.421875 17.894531 -86.132812 C 27.644531 -82.929688 34.917969 -72.890625 34.917969 -62.5625 C 34.917969 -47.574219 24.007812 -9.894531 14.839844 -1.164062 C 12.804688 0.871094 10.765625 1.746094 8.875 1.746094 C 2.617188 1.746094 -0.582031 -8.585938 5.820312 -12.804688 C 6.546875 -13.386719 7.566406 -13.820312 8.4375 -13.820312 C 9.3125 -13.820312 10.183594 -13.386719 10.621094 -12.511719 C 10.765625 -12.511719 10.910156 -12.511719 10.910156 -12.65625 C 10.476562 -14.113281 9.3125 -14.550781 8.148438 -14.550781 C 7.128906 -14.550781 5.964844 -14.257812 5.09375 -13.820312 C -3.347656 -9.3125 0.582031 5.09375 9.019531 5.09375 C 9.746094 5.09375 10.476562 4.945312 11.347656 4.65625 C 13.675781 4.074219 15.566406 2.765625 17.3125 1.453125 C 27.496094 -7.710938 33.027344 -29.390625 35.9375 -41.757812 C 37.683594 -40.882812 40.300781 -40.300781 42.339844 -40.300781 C 44.664062 -40.300781 53.832031 -42.191406 56.742188 -42.921875 C 56.886719 -42.921875 56.886719 -43.066406 57.03125 -43.210938 C 57.03125 -43.210938 56.886719 -43.355469 56.742188 -43.355469 C 54.996094 -43.648438 53.105469 -43.792969 51.359375 -44.085938 C 48.738281 -44.375 45.683594 -45.101562 42.773438 -45.101562 C 41.027344 -45.101562 37.828125 -44.375 36.371094 -43.503906 C 36.953125 -46.121094 37.535156 -48.738281 37.972656 -51.359375 C 38.410156 -54.996094 38.847656 -58.777344 38.699219 -62.707031 C 38.554688 -68.527344 36.519531 -73.183594 33.316406 -77.984375 C 42.191406 -86.277344 56.160156 -87.585938 67.800781 -87.585938 C 70.710938 -87.585938 73.617188 -87.441406 76.527344 -87.296875 C 76.675781 -87.296875 76.820312 -87.441406 76.820312 -87.585938 C 72.746094 -88.75 68.671875 -89.332031 64.742188 -89.769531 Z M 64.742188 -89.769531 "/></g></g></g><g fill="#ffffff" fill-opacity="1"><g transform="translate(160.042669, 273.297755)"><g><path d="M 10.46875 1.28125 C 9.21875 1.28125 7.875 0.910156 6.4375 0.171875 C 5.007812 -0.566406 3.789062 -1.613281 2.78125 -2.96875 C 1.78125 -4.320312 1.28125 -5.769531 1.28125 -7.3125 C 1.28125 -8.863281 1.628906 -10.335938 2.328125 -11.734375 C 3.878906 -14.992188 6.378906 -18.148438 9.828125 -21.203125 C 13.273438 -24.265625 16.859375 -26.878906 20.578125 -29.046875 C 24.296875 -31.222656 27.238281 -32.582031 29.40625 -33.125 C 31.570312 -33.664062 33.679688 -33.9375 35.734375 -33.9375 C 37.796875 -33.9375 39.5625 -33.410156 41.03125 -32.359375 C 42.5 -31.316406 43.234375 -30.21875 43.234375 -29.0625 C 43.234375 -28.675781 43.191406 -28.441406 43.109375 -28.359375 C 43.035156 -28.285156 42.847656 -28.328125 42.546875 -28.484375 C 41.609375 -29.953125 39.6875 -30.6875 36.78125 -30.6875 C 33.875 -30.6875 30.582031 -29.734375 26.90625 -27.828125 C 23.226562 -25.929688 19.757812 -23.550781 16.5 -20.6875 C 13.789062 -18.132812 11.410156 -15.25 9.359375 -12.03125 C 7.304688 -8.8125 6.28125 -6.46875 6.28125 -5 C 6.28125 -2.132812 7.09375 -0.703125 8.71875 -0.703125 C 10.34375 -0.703125 12.820312 -2.019531 16.15625 -4.65625 C 21.65625 -9.300781 25.414062 -12.707031 27.4375 -14.875 C 34.5625 -22.550781 38.394531 -26.390625 38.9375 -26.390625 C 39.863281 -26.390625 40.984375 -26.117188 42.296875 -25.578125 C 43.617188 -25.035156 44.050781 -24.375 43.59375 -23.59375 C 39.632812 -18.019531 37.304688 -12.398438 36.609375 -6.734375 C 36.535156 -6.046875 36.5 -5.15625 36.5 -4.0625 C 36.5 -2.976562 36.804688 -2.085938 37.421875 -1.390625 C 38.585938 -0.148438 40.175781 -0.0703125 42.1875 -1.15625 C 44.207031 -2.25 47.019531 -4.421875 50.625 -7.671875 C 54.226562 -10.921875 57.113281 -14.097656 59.28125 -17.203125 C 59.59375 -17.585938 59.941406 -17.679688 60.328125 -17.484375 C 60.710938 -17.296875 60.90625 -17.125 60.90625 -16.96875 C 60.90625 -15.8125 59.0625 -13.273438 55.375 -9.359375 C 51.695312 -5.441406 48.890625 -2.785156 46.953125 -1.390625 C 43.316406 1.316406 39.945312 2.671875 36.84375 2.671875 C 33.894531 2.671875 31.921875 1.195312 30.921875 -1.75 C 30.679688 -2.675781 30.5625 -3.71875 30.5625 -4.875 C 30.5625 -8.363281 31.300781 -12.046875 32.78125 -15.921875 C 32.46875 -15.765625 31.03125 -14.210938 28.46875 -11.265625 C 25.914062 -8.328125 22.953125 -5.5 19.578125 -2.78125 C 16.210938 -0.0703125 13.175781 1.28125 10.46875 1.28125 Z M 10.46875 1.28125 "/></g></g></g><g fill="#ffffff" fill-opacity="1"><g transform="translate(213.158198, 273.297755)"><g><path d="M 9.828125 -21.203125 C 13.273438 -24.265625 16.859375 -26.878906 20.578125 -29.046875 C 24.296875 -31.222656 27.238281 -32.582031 29.40625 -33.125 C 31.570312 -33.664062 33.703125 -33.9375 35.796875 -33.9375 C 37.890625 -33.9375 39.867188 -33.238281 41.734375 -31.84375 C 52.347656 -56.488281 62.5 -68.8125 72.1875 -68.8125 C 75.4375 -68.8125 77.644531 -67.878906 78.8125 -66.015625 C 79.351562 -65.085938 79.625 -64.273438 79.625 -63.578125 C 79.625 -61.640625 78.789062 -59.175781 77.125 -56.1875 C 75.457031 -53.207031 72.878906 -49.9375 69.390625 -46.375 C 65.898438 -42.8125 60.898438 -38.414062 54.390625 -33.1875 C 47.890625 -27.957031 44.289062 -25.03125 43.59375 -24.40625 C 41.113281 -18.675781 39.175781 -13.132812 37.78125 -7.78125 C 36.382812 -2.4375 35.6875 1.550781 35.6875 4.1875 C 35.6875 6.820312 36.148438 8.914062 37.078125 10.46875 C 37.546875 11.46875 38.242188 12.0625 39.171875 12.25 C 40.097656 12.445312 40.890625 12.332031 41.546875 11.90625 C 42.210938 11.488281 42.71875 11.125 43.0625 10.8125 C 43.414062 10.5 43.84375 10.207031 44.34375 9.9375 C 44.84375 9.664062 45.207031 9.609375 45.4375 9.765625 C 45.675781 9.921875 45.640625 10.347656 45.328125 11.046875 C 44.710938 11.816406 44.132812 12.472656 43.59375 13.015625 C 42.351562 13.867188 40.898438 14.296875 39.234375 14.296875 C 37.566406 14.296875 36.460938 14.257812 35.921875 14.1875 C 32.203125 13.5625 30.34375 10.847656 30.34375 6.046875 C 30.34375 1.390625 30.960938 -2.910156 32.203125 -6.859375 C 33.898438 -12.285156 35.445312 -16.78125 36.84375 -20.34375 C 24.445312 -5.925781 15.65625 1.28125 10.46875 1.28125 C 9.21875 1.28125 7.875 0.910156 6.4375 0.171875 C 5.007812 -0.566406 3.789062 -1.613281 2.78125 -2.96875 C 1.78125 -4.320312 1.28125 -5.769531 1.28125 -7.3125 C 1.28125 -8.863281 1.628906 -10.335938 2.328125 -11.734375 C 3.878906 -14.992188 6.378906 -18.148438 9.828125 -21.203125 Z M 40.796875 -29.984375 C 39.867188 -30.453125 38.238281 -30.6875 35.90625 -30.6875 C 33.582031 -30.6875 30.582031 -29.734375 26.90625 -27.828125 C 23.226562 -25.929688 19.757812 -23.550781 16.5 -20.6875 C 13.789062 -18.132812 11.410156 -15.25 9.359375 -12.03125 C 7.304688 -8.8125 6.28125 -6.46875 6.28125 -5 C 6.28125 -2.132812 7.09375 -0.703125 8.71875 -0.703125 C 10.34375 -0.703125 12.820312 -2.019531 16.15625 -4.65625 C 24.757812 -11.707031 32.429688 -18.832031 39.171875 -26.03125 Z M 74.859375 -59.28125 C 75.859375 -61.132812 76.359375 -62.703125 76.359375 -63.984375 C 76.359375 -65.265625 75.796875 -65.90625 74.671875 -65.90625 C 73.554688 -65.90625 72.066406 -65.207031 70.203125 -63.8125 C 61.679688 -57.300781 53.972656 -46.414062 47.078125 -31.15625 C 52.109375 -34.40625 57.375 -38.742188 62.875 -44.171875 C 68.382812 -49.597656 72.378906 -54.632812 74.859375 -59.28125 Z M 74.859375 -59.28125 "/></g></g></g><g fill="#ffffff" fill-opacity="1"><g transform="translate(256.743155, 273.297755)"><g><path d="M 10.46875 1.28125 C 9.21875 1.28125 7.875 0.910156 6.4375 0.171875 C 5.007812 -0.566406 3.789062 -1.613281 2.78125 -2.96875 C 1.78125 -4.320312 1.28125 -5.769531 1.28125 -7.3125 C 1.28125 -8.863281 1.628906 -10.335938 2.328125 -11.734375 C 3.878906 -14.992188 6.378906 -18.148438 9.828125 -21.203125 C 13.273438 -24.265625 16.859375 -26.878906 20.578125 -29.046875 C 24.296875 -31.222656 27.238281 -32.582031 29.40625 -33.125 C 31.570312 -33.664062 33.679688 -33.9375 35.734375 -33.9375 C 37.796875 -33.9375 39.5625 -33.410156 41.03125 -32.359375 C 42.5 -31.316406 43.234375 -30.21875 43.234375 -29.0625 C 43.234375 -28.675781 43.191406 -28.441406 43.109375 -28.359375 C 43.035156 -28.285156 42.847656 -28.328125 42.546875 -28.484375 C 41.609375 -29.953125 39.6875 -30.6875 36.78125 -30.6875 C 33.875 -30.6875 30.582031 -29.734375 26.90625 -27.828125 C 23.226562 -25.929688 19.757812 -23.550781 16.5 -20.6875 C 13.789062 -18.132812 11.410156 -15.25 9.359375 -12.03125 C 7.304688 -8.8125 6.28125 -6.46875 6.28125 -5 C 6.28125 -2.132812 7.09375 -0.703125 8.71875 -0.703125 C 10.34375 -0.703125 12.820312 -2.019531 16.15625 -4.65625 C 21.65625 -9.300781 25.414062 -12.707031 27.4375 -14.875 C 34.5625 -22.550781 38.394531 -26.390625 38.9375 -26.390625 C 39.863281 -26.390625 40.984375 -26.117188 42.296875 -25.578125 C 43.617188 -25.035156 44.050781 -24.375 43.59375 -23.59375 C 39.632812 -18.019531 37.304688 -12.398438 36.609375 -6.734375 C 36.535156 -6.046875 36.5 -5.15625 36.5 -4.0625 C 36.5 -2.976562 36.804688 -2.085938 37.421875 -1.390625 C 38.585938 -0.148438 40.175781 -0.0703125 42.1875 -1.15625 C 44.207031 -2.25 47.019531 -4.421875 50.625 -7.671875 C 54.226562 -10.921875 57.113281 -14.097656 59.28125 -17.203125 C 59.59375 -17.585938 59.941406 -17.679688 60.328125 -17.484375 C 60.710938 -17.296875 60.90625 -17.125 60.90625 -16.96875 C 60.90625 -15.8125 59.0625 -13.273438 55.375 -9.359375 C 51.695312 -5.441406 48.890625 -2.785156 46.953125 -1.390625 C 43.316406 1.316406 39.945312 2.671875 36.84375 2.671875 C 33.894531 2.671875 31.921875 1.195312 30.921875 -1.75 C 30.679688 -2.675781 30.5625 -3.71875 30.5625 -4.875 C 30.5625 -8.363281 31.300781 -12.046875 32.78125 -15.921875 C 32.46875 -15.765625 31.03125 -14.210938 28.46875 -11.265625 C 25.914062 -8.328125 22.953125 -5.5 19.578125 -2.78125 C 16.210938 -0.0703125 13.175781 1.28125 10.46875 1.28125 Z M 10.46875 1.28125 "/></g></g></g><g fill="#ffffff" fill-opacity="1"><g transform="translate(200.383066, 205.034457)"><g><path d="M 4.46875 -9.65625 C 6.039062 -11.050781 7.675781 -12.242188 9.375 -13.234375 C 11.070312 -14.222656 12.410156 -14.84375 13.390625 -15.09375 C 14.378906 -15.34375 15.347656 -15.46875 16.296875 -15.46875 C 17.253906 -15.46875 18.160156 -15.148438 19.015625 -14.515625 C 23.847656 -25.734375 28.472656 -31.34375 32.890625 -31.34375 C 34.367188 -31.34375 35.375 -30.921875 35.90625 -30.078125 C 36.144531 -29.648438 36.265625 -29.28125 36.265625 -28.96875 C 36.265625 -28.082031 35.882812 -26.957031 35.125 -25.59375 C 34.375 -24.238281 33.203125 -22.75 31.609375 -21.125 C 30.023438 -19.5 27.75 -17.492188 24.78125 -15.109375 C 21.8125 -12.734375 20.171875 -11.40625 19.859375 -11.125 C 18.722656 -8.507812 17.835938 -5.984375 17.203125 -3.546875 C 16.566406 -1.109375 16.25 0.707031 16.25 1.90625 C 16.25 3.101562 16.460938 4.054688 16.890625 4.765625 C 17.097656 5.222656 17.414062 5.492188 17.84375 5.578125 C 18.269531 5.671875 18.628906 5.617188 18.921875 5.421875 C 19.222656 5.234375 19.453125 5.066406 19.609375 4.921875 C 19.773438 4.785156 19.972656 4.65625 20.203125 4.53125 C 20.429688 4.40625 20.597656 4.375 20.703125 4.4375 C 20.804688 4.507812 20.789062 4.707031 20.65625 5.03125 C 20.375 5.382812 20.109375 5.6875 19.859375 5.9375 C 19.296875 6.320312 18.632812 6.515625 17.875 6.515625 C 17.113281 6.515625 16.609375 6.492188 16.359375 6.453125 C 14.671875 6.171875 13.828125 4.9375 13.828125 2.75 C 13.828125 0.632812 14.109375 -1.320312 14.671875 -3.125 C 15.441406 -5.59375 16.144531 -7.640625 16.78125 -9.265625 C 11.132812 -2.703125 7.128906 0.578125 4.765625 0.578125 C 4.203125 0.578125 3.59375 0.410156 2.9375 0.078125 C 2.28125 -0.253906 1.722656 -0.726562 1.265625 -1.34375 C 0.804688 -1.96875 0.578125 -2.628906 0.578125 -3.328125 C 0.578125 -4.035156 0.738281 -4.707031 1.0625 -5.34375 C 1.769531 -6.832031 2.90625 -8.269531 4.46875 -9.65625 Z M 18.59375 -13.65625 C 18.164062 -13.875 17.421875 -13.984375 16.359375 -13.984375 C 15.304688 -13.984375 13.941406 -13.550781 12.265625 -12.6875 C 10.585938 -11.820312 9.003906 -10.734375 7.515625 -9.421875 C 6.285156 -8.253906 5.203125 -6.9375 4.265625 -5.46875 C 3.328125 -4.007812 2.859375 -2.945312 2.859375 -2.28125 C 2.859375 -0.96875 3.226562 -0.3125 3.96875 -0.3125 C 4.707031 -0.3125 5.835938 -0.914062 7.359375 -2.125 C 11.273438 -5.332031 14.769531 -8.578125 17.84375 -11.859375 Z M 34.109375 -27 C 34.566406 -27.851562 34.796875 -28.570312 34.796875 -29.15625 C 34.796875 -29.738281 34.535156 -30.03125 34.015625 -30.03125 C 33.503906 -30.03125 32.828125 -29.710938 31.984375 -29.078125 C 28.097656 -26.109375 24.585938 -21.144531 21.453125 -14.1875 C 23.742188 -15.675781 26.140625 -17.65625 28.640625 -20.125 C 31.148438 -22.59375 32.972656 -24.882812 34.109375 -27 Z M 34.109375 -27 "/></g></g></g><g fill="#ffffff" fill-opacity="1"><g transform="translate(220.238158, 205.034457)"><g><path d="M 14.34375 -15.40625 C 16.25 -15.40625 17.203125 -14.488281 17.203125 -12.65625 C 17.203125 -11.695312 16.941406 -10.921875 16.421875 -10.328125 C 15.535156 -9.015625 14.101562 -7.875 12.125 -6.90625 C 10.144531 -5.9375 8.46875 -5.398438 7.09375 -5.296875 C 6.601562 -5.265625 6.335938 -5.40625 6.296875 -5.71875 C 6.265625 -5.863281 6.3125 -5.953125 6.4375 -5.984375 C 6.5625 -6.015625 6.65625 -6.03125 6.71875 -6.03125 C 7.53125 -6.101562 8.570312 -6.492188 9.84375 -7.203125 C 12.207031 -8.472656 13.9375 -9.78125 15.03125 -11.125 C 15.5 -11.757812 15.734375 -12.367188 15.734375 -12.953125 C 15.734375 -13.535156 15.445312 -13.828125 14.875 -13.828125 C 14.414062 -13.828125 13.800781 -13.628906 13.03125 -13.234375 C 11.363281 -12.460938 9.613281 -11.113281 7.78125 -9.1875 C 5.945312 -7.257812 4.75 -5.378906 4.1875 -3.546875 C 4.007812 -2.984375 3.921875 -2.425781 3.921875 -1.875 C 3.921875 -1.332031 4.148438 -0.8125 4.609375 -0.3125 C 5.066406 0.175781 5.769531 0.421875 6.71875 0.421875 C 7.78125 0.421875 9 0.140625 10.375 -0.421875 C 14.363281 -2.046875 17.4375 -4.5 19.59375 -7.78125 C 19.800781 -8.0625 19.992188 -8.113281 20.171875 -7.9375 C 20.316406 -7.875 20.390625 -7.785156 20.390625 -7.671875 C 20.390625 -7.566406 20.335938 -7.445312 20.234375 -7.3125 C 19.171875 -5.539062 17.828125 -3.96875 16.203125 -2.59375 C 13.054688 0.09375 10.003906 1.4375 7.046875 1.4375 C 4.503906 1.4375 2.71875 0.675781 1.6875 -0.84375 C 1.300781 -1.445312 1.109375 -2.171875 1.109375 -3.015625 C 1.109375 -3.867188 1.335938 -4.875 1.796875 -6.03125 C 2.679688 -8.050781 4.570312 -10.117188 7.46875 -12.234375 C 10.363281 -14.347656 12.65625 -15.40625 14.34375 -15.40625 Z M 14.34375 -15.40625 "/></g></g></g></svg>